<?xml version="1.0" standalone="no"?><!DOCTYPE svg PUBLIC "-//W3C//DTD SVG 1.1//EN" "http://www.w3.org/Graphics/SVG/1.1/DTD/svg11.dtd"><svg class="icon" height="512" viewBox="0 0 1024 1024" version="1.1" xmlns="http://www.w3.org/2000/svg"><path d="M120.07936 879.91296H66.62144c-22.61504 0-41.02144 18.4064-41.02144 41.02144 0 22.60992 18.40128 41.01632 41.02144 41.01632h53.45792c22.61504 0 41.02144-18.4064 41.02144-41.01632-0.18432-22.59456-18.58048-41.02144-41.02144-41.02144zM120.07936 556.76928H66.62144c-22.61504 0-41.02144 18.4064-41.02144 41.02144s18.40128 41.02144 41.02144 41.02144h53.45792c22.61504 0 41.02144-18.4064 41.02144-41.02144-0.18432-22.59456-18.58048-41.02144-41.02144-41.02144zM273.30048 315.86816h195.3536c22.61504 0 41.02144-18.40128 41.02144-41.02144 0-22.61504-18.40128-41.01632-41.02144-41.01632H273.30048c-22.61504 0-41.02144 18.40128-41.02144 41.01632-0.08704 10.81344 4.11648 21.02784 11.83744 28.80512a40.832 40.832 0 0 0 29.184 12.21632zM914.22208 556.76928H273.30048c-22.61504 0-41.02144 18.4064-41.02144 41.02144s18.40128 41.02144 41.02144 41.02144h640.91648c22.61504 0 41.01632-18.4064 41.01632-41.02144s-18.39616-41.02144-41.0112-41.02144zM120.07936 233.63584H66.62144C44.00128 233.63584 25.6 252.03712 25.6 274.65728c0 22.61504 18.40128 41.01632 41.02144 41.01632h53.45792c22.61504 0 41.02144-18.40128 41.02144-41.01632-0.00512-22.62016-18.4064-41.02144-41.02144-41.02144zM914.22208 879.91296H273.30048c-22.61504 0-41.02144 18.4064-41.02144 41.02144 0 22.60992 18.40128 41.01632 41.02144 41.01632h640.91648c22.61504 0 41.01632-18.4064 41.01632-41.01632 0-22.61504-18.39616-41.02144-41.0112-41.02144zM784.84992 492.09856c117.74976 0 213.55008-95.7952 213.55008-213.54496 0-117.75488-95.80032-213.55008-213.55008-213.55008-117.74464 0-213.53984 95.7952-213.53984 213.55008 0 117.74976 95.7952 213.54496 213.53984 213.54496z m-101.69344-235.10016c3.92704 0 7.69536 1.51552 10.35264 4.16256l62.1312 62.13632 120.56064-120.56064a14.71488 14.71488 0 0 1 10.35264-4.16768c3.92192 0 7.69536 1.52064 10.35264 4.1728a14.67392 14.67392 0 0 1-0.00512 20.70528l-130.90304 130.89792c-2.7648 2.77504-6.4512 4.29568-10.35776 4.29568s-7.58272-1.51552-10.35264-4.29056l-72.48384-72.47872a14.68416 14.68416 0 0 1 0.00512-20.7104 14.6944 14.6944 0 0 1 10.34752-4.16256z" fill="#333333" /></svg>